# xmcd
#
# Track frame offsets: 
#        150
#        14290
#        36731
#        50646
#        70402
#        85748
#        103476
#        118394
#        132001
#        146947
#        165071
#        179706
#        196084
#        214885
#        230959
#        245278
#        266382
#        281573
#        302628
#
# Disc length: 4298 seconds
#
# Revision: 0
# Processed by: cddbd v1.5.2PL0 Copyright (c) Steve Scherf et al.
# Submitted via: ExactAudioCopy v0.95b4
#
DISCID=2610c813
DTITLE=Lvivski muzyky - Mnogaya lita
DYEAR=1900
DGENRE=Folk
TTITLE0=Lvivski Muzyky/Chervona ruta
TTITLE1=Lvivski Muzyky/Tam za lisom
TTITLE2=Lvivski Muzyky/A na nashiy vulyci
TTITLE3=Lvivski Muzyky/Sylnyi viter
TTITLE4=Lvivski Muzyky/Zoryana nich
TTITLE5=Lvivski Muzyky/Spyt stavok
TTITLE6=Lvivski Muzyky/Yavorochky
TTITLE7=Lvivski Muzyky/Pyemo
TTITLE8=Lvivski Muzyky/Kotylasa bochka
TTITLE9=Lvivski Muzyky/Vesna nadhodyt
TTITLE10=Lvivski Muzyky/A ya yidu selom
TTITLE11=Lvivski Muzyky/Letily v nebi zhuravli
TTITLE12=Lvivski Muzyky/Nadyvlus na tebe
TTITLE13=Lvivski Muzyky/Moya kralechka
TTITLE14=Lvivski Muzyky/Oy tam u Lvovvi na starim zamku
TTITLE15=Lvivski Muzyky/Plach kohana plach
TTITLE16=Lvivski Muzyky/Oy dube miy dube
TTITLE17=Lvivski Muzyky/Chervona kalyna
TTITLE18=Lvivski Muzyky/Mnogaya lita
EXTD=
EXTT0=
EXTT1=
EXTT2=
EXTT3=
EXTT4=
EXTT5=
EXTT6=
EXTT7=
EXTT8=
EXTT9=
EXTT10=
EXTT11=
EXTT12=
EXTT13=
EXTT14=
EXTT15=
EXTT16=
EXTT17=
EXTT18=
PLAYORDER=
